<!-- Generated by IcoMoon.io -->
<svg version="1.1" xmlns="http://www.w3.org/2000/svg" width="864" height="1024" viewBox="0 0 864 1024">
<g id="icomoon-ignore">
</g>
<path fill="#8E198E" stroke="#8E198E" stroke-width="2" d="M752 1024c27.808 0 48-20.192 48-48v-896c0-27.808-20.192-48-48-48h-640c-27.808 0-48 20.192-48 48v37.344c0 8.832 7.168 16 16 16s16-7.168 16-16v-37.344c0-10.016 5.984-16 16-16h145.984v928h-145.984c-10.016 0-16-5.984-16-16v-29.344c0-8.832-7.168-16-16-16s-16 7.168-16 16v29.344c0 27.808 20.192 48 48 48h640zM288 64h464c10.016 0 16 5.984 16 16v896c0 10.016-5.984 16-16 16h-464v-928zM864 944v-832c0-8.832-7.168-16-16-16s-16 7.168-16 16v832c0 8.832 7.168 16 16 16s16-7.168 16-16zM16 352h128c8.832 0 16-7.168 16-16s-7.168-16-16-16h-128c-8.832 0-16 7.168-16 16s7.168 16 16 16zM16 224h128c8.832 0 16-7.168 16-16s-7.168-16-16-16h-128c-8.832 0-16 7.168-16 16s7.168 16 16 16zM16 480h128c8.832 0 16-7.168 16-16s-7.168-16-16-16h-128c-8.832 0-16 7.168-16 16s7.168 16 16 16zM16 736h128c8.832 0 16-7.168 16-16s-7.168-16-16-16h-128c-8.832 0-16 7.168-16 16s7.168 16 16 16zM16 608h128c8.832 0 16-7.168 16-16s-7.168-16-16-16h-128c-8.832 0-16 7.168-16 16s7.168 16 16 16zM16 864h128c8.832 0 16-7.168 16-16s-7.168-16-16-16h-128c-8.832 0-16 7.168-16 16s7.168 16 16 16z"></path>
</svg>
